<svg width="16" height="17" viewBox="0 0 16 17" fill="none" xmlns="http://www.w3.org/2000/svg">
<path d="M8 2.36109C9.83667 2.36109 11.6367 2.51575 13.3887 2.81309C13.744 2.87309 14 3.18375 14 3.54375V4.23975C14 4.43674 13.9612 4.63179 13.8858 4.81378C13.8104 4.99577 13.7 5.16113 13.5607 5.30042L9.93933 8.92175C9.80005 9.06104 9.68956 9.2264 9.61418 9.40839C9.5388 9.59038 9.5 9.78544 9.5 9.98242V11.9338C9.50005 12.2124 9.42249 12.4855 9.27601 12.7226C9.12952 12.9596 8.91991 13.1512 8.67067 13.2758L6.5 14.3611V9.98242C6.5 9.78544 6.4612 9.59038 6.38582 9.40839C6.31044 9.2264 6.19995 9.06104 6.06067 8.92175L2.43933 5.30042C2.30005 5.16113 2.18956 4.99577 2.11418 4.81378C2.0388 4.63179 2 4.43674 2 4.23975V3.54375C2 3.18375 2.256 2.87309 2.61133 2.81309C4.39171 2.51165 6.19428 2.36046 8 2.36109Z" stroke="#667085" stroke-linecap="round" stroke-linejoin="round"/>
</svg>
